<svg width="17" height="16" viewBox="0 0 17 16" fill="none" xmlns="http://www.w3.org/2000/svg">
<path d="M7.98176 10.9846C7.71676 10.9846 7.46176 10.8796 7.27476 10.6916L4.29276 7.70962C3.90176 7.31862 3.90176 6.68663 4.29276 6.29563C4.68376 5.90463 5.31576 5.90463 5.70676 6.29563L7.98176 8.57062L15.2748 1.27762C15.6658 0.886625 16.2978 0.886625 16.6888 1.27762C17.0798 1.66862 17.0798 2.30062 16.6888 2.69162L8.68876 10.6916C8.50076 10.8796 8.24676 10.9846 7.98176 10.9846Z" fill="#348F79"/>
<path d="M8 16C3.589 16 0 12.411 0 8C0 3.589 3.589 0 8 0C9.193 0 10.342 0.257 11.414 0.763C11.913 0.999 12.127 1.595 11.891 2.094C11.655 2.594 11.059 2.809 10.559 2.572C9.757 2.192 8.896 2 8 2C4.691 2 2 4.691 2 8C2 11.309 4.691 14 8 14C11.309 14 14 11.309 14 8C14 7.447 14.448 7 15 7C15.552 7 16 7.447 16 8C16 12.411 12.411 16 8 16Z" fill="#348F79"/>
</svg>
